# AST/ASF file generated using VICON BodyLanguage
# -----------------------------------------------
:version 1.10
:name VICON
:units
  mass 1.0
  length 0.45
  angle deg
:documentation
   .ast/.asf automatically generated from VICON data using
   VICON BodyBuilder and BodyLanguage model FoxedUp or BRILLIANT.MOD
:root
   order TX TY TZ RX RY RZ
   axis XYZ
   position 0 0 0  
   orientation 0 0 0 
:bonedata
  begin
     id 1 
     name lhipjoint
     direction 0.646657 -0.683706 0.338203 
     length 2.4948 
     axis 0 0 0  XYZ
  end
  begin
     id 2 
     name lfemur
     direction 0.34202 -0.939693 0  
     length 6.79491  
     axis 0 0 20  XYZ
    dof rx ry rz
    limits (-160.0 20.0)
           (-70.0 70.0)
           (-60.0 70.0)
  end
  begin
     id 3 
     name ltibia
     direction 0.34202 -0.939693 0   
     length 7.56807   
     axis 0 0 20   XYZ
    dof rx
    limits (-10.0 170.0)
  end
  begin
     id 4 
     name lfoot
     direction 0.0679796 -0.186772 0.980048   
     length 2.53018   
     axis -90 7.62852e-016 20   XYZ
    dof rx rz
    limits (-45.0 90.0)
           (-70.0 20.0)
  end
  begin
     id 5 
     name ltoes
     direction 1.53625e-011 -4.21881e-011 1   
     length 1.26912   
     axis -90 7.62852e-016 20   XYZ
    dof rx
    limits (-90.0 20.0)
  end
  begin
     id 6 
     name rhipjoint
     direction -0.618868 -0.704065 0.348274   
     length 2.42265  
     axis 0 0 0  XYZ 
  end
  begin
     id 7 
     name rfemur
     direction -0.34202 -0.939693 0   
     length 6.73814   
     axis 0 0 -20   XYZ
    dof rx ry rz
    limits (-160.0 20.0)
           (-70.0 70.0)
           (-70.0 60.0)
  end
  begin
     id 8 
     name rtibia
     direction -0.34202 -0.939693 0   
     length 7.66799   
     axis 0 0 -20   XYZ
    dof rx
    limits (-10.0 170.0)
 end
 begin
     id 9 
     name rfoot
     direction -0.0727352 -0.199838 0.977125   
     length 2.57224  
     axis -90 -7.62852e-016 -20   XYZ
    dof rx rz
    limits (-45.0 90.0)
           (-20.0 70.0)
  end
  begin
     id 10 
     name rtoes
     direction -1.53501e-011 -4.21858e-011 1   
     length 1.28858   
     axis -90 -7.62852e-016 -20   XYZ
    dof rx
    limits (-90.0 20.0)
  end
  begin
     id 11 
     name lowerback
     direction -0.0172471 0.995767 -0.0902851   
     length 2.20206   
     axis 0 0 0   XYZ
    dof rx ry rz
    limits (-20.0 45.0)
           (-30.0 30.0)
           (-30.0 30.0)
  end
  begin
     id 12 
     name upperback
     direction -0.000110737 0.999714 0.0239043   
     length 2.19523   
     axis 0 0 0   XYZ
    dof rx ry rz
    limits (-20.0 45.0)
           (-30.0 30.0)
           (-30.0 30.0)
  end
  begin
     id 13 
     name thorax
     direction 0.00704869 0.997783 0.0661741   
     length 2.21977   
     axis 0 0 0   XYZ
    dof rx ry rz
    limits (-20.0 45.0)
           (-30.0 30.0)
           (-30.0 30.0)
  end
  begin
     id 14 
     name lowerneck
     direction -0.00407501 0.995527 0.0943846   
     length 1.83142   
     axis 0 0 0   XYZ
    dof rx ry rz
    limits (-20.0 45.0)
           (-30.0 30.0)
           (-30.0 30.0)
  end
  begin
     id 15 
     name upperneck
     direction 0.0640586 0.986486 -0.150807   
     length 1.84616   
     axis 0 0 0   XYZ
    dof rx ry rz
    limits (-20.0 45.0)
           (-30.0 30.0)
           (-30.0 30.0)
  end
  begin
     id 16
     name head
     direction 0.0188017 0.99791 -0.0618239  
     length 1.85932  
     axis 0 0 0   XYZ
    dof rx ry rz
    limits (-20.0 45.0)
           (-30.0 30.0)
           (-30.0 30.0)
  end
  begin
     id 17 
     name lclavicle
     direction 0.976074 0.206905 0.066852  
     length 3.81043  
     axis 0 0 0   XYZ
    dof ry rz
    limits (-20.0 10.0)
           (0.0 20.0)
  end
  begin
     id 18 
     name lhumerus
     direction 1 -4.48971e-011 1.86916e-027   
     length 5.37587   
     axis 180 -30 -90   XYZ
    dof rx ry rz
    limits (-60.0 90.0)
           (-90.0 90.0)
           (-90.0 90.0)
  end
  begin
     id 19
     name lradius
     direction 1 -4.48968e-011 1.69187e-027   
     length 3.35977   
     axis 180 -30 -90   XYZ
    dof rx
    limits (-10.0 170.0)
  end
  begin
     id 20
     name lwrist
     direction 1 -4.48968e-011 5.8978e-027   
     length 1.67988   
     axis -3.27506e-015 90 90   XYZ
    dof ry
    limits (-180.0 0.0)
 end
  begin
     id 21 
     name lhand
     direction 1 -4.49028e-011 1.18071e-026   
     length 0.561859   
     axis -7.52654e-015 90 90   XYZ
    dof rx rz
    limits (-90.0 90.0)
           (-45.0 45.0)
  end
  begin
     id 22 
     name lfingers
     direction 1 -4.48927e-011 2.35758e-026   
     length 0.452985   
     axis -1.50534e-014 90 90   XYZ
    dof rx
    limits (0.0 90.0)
  end
  begin
     id 23
     name lthumb
     direction 0.707107 -6.34898e-011 0.707107   
     length 0.650399   
     axis -90 45 5.69224e-014   XYZ
    dof rx rz
    limits (-45.0 45.0)
           (-45.0 45.0)
  end
  begin
     id 24 
     name rclavicle
     direction -0.988403 0.151789 0.00439714   
     length 3.6942  
     axis 0 0 0   XYZ 
    dof ry rz
    limits (-10.0 20.0)
           (-20.0 0.0)
  end
  begin
     id 25 
     name rhumerus
     direction -1 -4.48978e-011 1.62495e-027  
     length 5.22819   
     axis 180 30 90   XYZ
    dof rx ry rz
    limits (-90.0 60.0)
           (-90.0 90.0)
           (-90.0 90.0)
  end
  begin
     id 26 
     name rradius
     direction -1 -4.48961e-011 3.47796e-027   
     length 3.40764   
     axis 180 30 90   XYZ
    dof rx
    limits (-10.0 170.0)
  end
  begin
     id 27 
     name rwrist
     direction -1 -4.48949e-011 5.89602e-027   
     length 1.70382   
     axis -3.27506e-015 -90 -90   XYZ
    dof ry
    limits (-180.0 0.0)
  end
  begin
     id 28
     name rhand
     direction -1 -4.48977e-011 1.17973e-026   
     length 0.583255   
     axis -7.52654e-015 -90 -90   XYZ
    dof rx rz
    limits (-90.0 90.0)
           (-45.0 45.0)
  end
  begin
     id 29
     name rfingers
     direction -1 -4.49099e-011 2.36408e-026   
     length 0.470235   
     axis -1.50534e-014 -90 -90   XYZ
    dof rx
    limits (0.0 90.0)
  end
  begin
     id 30
     name rthumb
     direction -0.707107 -6.35011e-011 0.707107   
     length 0.675167   
     axis -90 -45 -5.69224e-014   XYZ
    dof rx rz
    limits (-45.0 45.0)
           (-45.0 45.0)
  end
:hierarchy
  begin
    root lhipjoint rhipjoint lowerback
    lhipjoint lfemur
    lfemur ltibia
    ltibia lfoot
    lfoot ltoes
    rhipjoint rfemur
    rfemur rtibia
    rtibia rfoot
    rfoot rtoes
    lowerback upperback
    upperback thorax
    thorax lowerneck lclavicle rclavicle
    lowerneck upperneck
    upperneck head
    lclavicle lhumerus
    lhumerus lradius
    lradius lwrist
    lwrist lhand lthumb
    lhand lfingers
    rclavicle rhumerus
    rhumerus rradius
    rradius rwrist
    rwrist rhand rthumb
    rhand rfingers
  end

#!OML:ASF G:\JayActor3\Patient Classification 1\Patient 1\Session 2\male.ASF
:FULLY-SPECIFIED
:DEGREES
265
root -10.8238 16.1444 -6.7198 -180.985 -68.9487 177.886
lowerback 7.36898 0.153659 -2.86081
upperback 3.1997 -0.164308 -2.26555
thorax -0.828696 -0.152383 -0.712453
lowerneck -9.49983 0.642329 -3.07025
upperneck 3.19185 0.929488 4.69103
head 2.6685 0.575946 2.12513
rclavicle -1.03368e-014 -3.97569e-015
rhumerus -36.411 23.8009 -91.3125
rradius 41.3819
rwrist -18.0246
rhand -20.6314 10.1766
rfingers 7.12502
rthumb 5.73019 -19.7259
lclavicle -1.03368e-014 -3.97569e-015
lhumerus -37.9255 -35.9521 88.0593
lradius 87.253
lwrist 28.1763
lhand -21.0104 20.8366
lfingers 7.12502
lthumb 5.36427 50.7487
rfemur -27.7571 -1.18189 23.144
rtibia 50.8865
rfoot -23.6324 -12.3576
rtoes 18.7279
lfemur -3.513 9.77621 -12.2716
ltibia 65.9045
lfoot 6.59328 1.80479
ltoes -14.3484
266
root -11.0473 16.1401 -6.82637 -183.47 -69.2049 180.567
lowerback 7.45037 0.468645 -2.10153
upperback 3.20511 0.310875 -2.12881
thorax -0.869157 0.0929328 -1.03546
lowerneck -9.59026 0.273363 -3.33389
upperneck 3.03806 0.457283 4.95894
head 2.65774 0.345935 2.23855
rclavicle 3.67752e-015 -2.14687e-014
rhumerus -34.7173 24.4279 -91.6966
rradius 41.6149
rwrist -18.0924
rhand -20.7456 10.1416
rfingers 7.12502
rthumb 5.62001 -19.7639
lclavicle 3.67752e-015 -2.14687e-014
lhumerus -39.25 -34.9121 88.8044
lradius 83.3957
lwrist 27.0955
lhand -21.7457 21.2704
lfingers 7.12502
lthumb 4.65435 51.1993
rfemur -26.712 -1.64887 24.2734
rtibia 50.8563
rfoot -24.4675 -12.295
rtoes 18.5546
lfemur -6.7082 9.57511 -11.4194
ltibia 68.5701
lfoot 5.11446 0.262791
ltoes -15.1226
267
root -11.2692 16.1346 -6.92993 -185.829 -69.5055 183.146
lowerback 7.52684 0.774438 -1.40429
upperback 3.18967 0.769949 -2.0101
thorax -0.918464 0.329512 -1.34255
lowerneck -9.66225 -0.108663 -3.62856
upperneck 2.89764 -0.032026 5.28155
head 2.65274 0.10867 2.37566
rclavicle -2.48481e-014 -1.35174e-014
rhumerus -33.0642 25.217 -91.9662
rradius 42.0294
rwrist -18.253
rhand -20.845 10.0656
rfingers 7.12502
rthumb 5.52404 -19.8424
lclavicle -2.48481e-014 -1.35174e-014
lhumerus -40.4218 -33.8303 89.3072
lradius 79.4288
lwrist 25.7988
lhand -22.4976 21.6539
lfingers 7.12502
lthumb 3.92829 51.5975
rfemur -25.7228 -2.19836 25.3089
rtibia 50.8115
rfoot -25.2996 -12.1708
rtoes 18.3953
lfemur -10.0352 9.29702 -10.7748
ltibia 70.7759
lfoot 3.4254 -1.21651
ltoes -16.2331
268
root -11.4909 16.1277 -7.03161 -188.087 -69.8428 185.637
lowerback 7.59938 1.07079 -0.77298
upperback 3.15686 1.21213 -1.91543
thorax -0.975156 0.556708 -1.6373
lowerneck -9.71407 -0.501787 -3.94338
upperneck 2.77463 -0.537455 5.65786
head 2.65537 -0.135319 2.53458
rclavicle 1.50082e-014 6.36111e-015
rhumerus -31.461 26.1649 -92.1122
rradius 42.6284
rwrist -18.4936
rhand -20.921 9.95501
rfingers 7.12502
rthumb 5.45064 -19.9549
lclavicle 1.50082e-014 6.36111e-015
lhumerus -41.506 -32.7484 89.5646
lradius 75.5168
lwrist 24.3407
lhand -23.2054 21.9962
lfingers 7.12502
lthumb 3.2447 51.9513
rfemur -24.7712 -2.80014 26.2571
rtibia 50.7553
rfoot -26.1137 -12.012
rtoes 18.2825
lfemur -13.4378 8.95877 -10.3283
ltibia 72.5008
lfoot 1.63585 -2.53889
ltoes -17.5604
269
root -11.7137 16.1191 -7.13303 -190.283 -70.2088 188.063
lowerback 7.66747 1.35689 -0.209141
upperback 3.11314 1.63603 -1.84818
thorax -1.03377 0.773677 -1.92189
lowerneck -9.74539 -0.903875 -4.26288
upperneck 2.6694 -1.05799 6.08025
head 2.66616 -0.385694 2.71023
rclavicle 2.0276e-014 4.77083e-015
rhumerus -29.9066 27.2548 -92.1239
rradius 43.4042
rwrist -18.7867
rhand -20.9722 9.8239
rfingers 7.12502
rthumb 5.40124 -20.0873
lclavicle 2.0276e-014 4.77083e-015
lhumerus -42.5766 -31.7176 89.5826
lradius 71.8447
lwrist 22.8338
lhand -23.7903 22.3156
lfingers 7.12502
lthumb 2.67989 52.2785
rfemur -23.8294 -3.41549 27.1321
rtibia 50.6846
rfoot -26.9086 -11.8457
rtoes 18.2346
lfemur -16.8513 8.57421 -10.0574
ltibia 73.733
lfoot -0.17426 -3.63178
ltoes -19.0141
270
root -11.9387 16.1088 -7.23587 -192.469 -70.5972 190.461
lowerback 7.73236 1.63128 0.289246
upperback 3.06677 2.03952 -1.80871
thorax -1.08791 0.97937 -2.1973
lowerneck -9.75692 -1.31302 -4.56848
upperneck 2.57845 -1.59286 6.53451
head 2.6841 -0.642448 2.89446
rclavicle -3.39922e-014 -7.95139e-016
rhumerus -28.3896 28.4539 -91.9882
rradius 44.3385
rwrist -19.0986
rhand -21.0006 9.68645
rfingers 7.12502
rthumb 5.37379 -20.2254
lclavicle -3.39922e-014 -7.95139e-016
lhumerus -43.7063 -30.7982 89.3805
lradius 68.589
lwrist 21.4308
lhand -24.1673 22.6289
lfingers 7.12502
lthumb 2.31581 52.5961
rfemur -22.8649 -4.00599 27.9543
rtibia 50.5895
rfoot -27.6916 -11.698
rtoes 18.2634
lfemur -20.2092 8.15274 -9.93059
ltibia 74.4682
lfoot -1.951 -4.44779
ltoes -20.5311
271
root -12.1668 16.097 -7.34169 -194.694 -71.0018 192.868
lowerback 7.79489 1.89314 0.723927
upperback 3.0251 2.42134 -1.79525
thorax -1.13185 1.17329 -2.46227
lowerneck -9.75124 -1.7269 -4.84532
upperneck 2.49902 -2.14027 7.00768
head 2.70835 -0.905037 3.08009
rclavicle -2.52457e-014 -9.54166e-015
rhumerus -26.8949 29.7153 -91.6907
rradius 45.4051
rwrist -19.4015
rhand -21.0121 9.55529
rfingers 7.12502
rthumb 5.3627 -20.3569
lclavicle -2.52457e-014 -9.54166e-015
lhumerus -44.9568 -30.0553 88.9933
lradius 65.8852
lwrist 20.2857
lhand -24.2638 22.9472
lfingers 7.12502
lthumb 2.22264 52.9153
rfemur -21.8458 -4.54093 28.744
rtibia 50.4536
rfoot -28.4692 -11.5889
rtoes 18.3721
lfemur -23.4473 7.70331 -9.91779
ltibia 74.7054
lfoot -3.65405 -4.95503
ltoes -22.0531
272
root -12.3989 16.0846 -7.45168 -197.004 -71.4166 195.32
lowerback 7.85608 2.14246 1.09693
upperback 2.99256 2.78141 -1.80415
thorax -1.16295 1.35559 -2.71392
lowerneck -9.72951 -2.14316 -5.08187
upperneck 2.42847 -2.69802 7.48786
head 2.73752 -1.17271 3.26077
rclavicle -1.80894e-014 -1.27222e-014
rhumerus -25.409 30.9836 -91.22
rradius 46.5727
rwrist -19.6801
rhand -21.0095 9.44068
rfingers 7.12502
rthumb 5.36517 -20.4714
lclavicle -1.80894e-014 -1.27222e-014
lhumerus -46.3715 -29.5497 88.4716
lradius 63.8066
lwrist 19.5114
lhand -24.0443 23.278
lfingers 7.12502
lthumb 2.43461 53.2439
rfemur -20.7447 -5.00158 29.5206
rtibia 50.2523
rfoot -29.2372 -11.5322
rtoes 18.5482
lfemur -26.5077 7.2383 -9.99269
ltibia 74.4441
lfoot -5.24738 -5.13237
ltoes -23.5146
273
root -12.6352 16.0736 -7.56655 -199.433 -71.8337 197.848
lowerback 7.91888 2.38045 1.41014
upperback 2.96947 3.12139 -1.83088
thorax -1.18376 1.52726 -2.94877
lowerneck -9.69014 -2.55925 -5.27458
upperneck 2.36562 -3.2632 7.97122
head 2.77027 -1.44425 3.4344
rclavicle 9.14409e-015 2.22639e-014
rhumerus -23.9262 32.2029 -90.5718
rradius 47.8072
rwrist -19.9345
rhand -20.992 9.34947
rfingers 7.12502
rthumb 5.38205 -20.5622
lclavicle 9.14409e-015 2.22639e-014
lhumerus -47.9729 -29.3244 87.8756
lradius 62.36
lwrist 19.1478
lhand -23.5254 23.6259
lfingers 7.12502
lthumb 2.93573 53.5855
rfemur -19.5386 -5.38334 30.2993
rtibia 49.9537
rfoot -29.9756 -11.5335
rtoes 18.7556
lfemur -29.3359 6.77756 -10.136
ltibia 73.6791
lfoot -6.69355 -4.97132
ltoes -24.8575
274
root -12.8762 16.0671 -7.68654 -201.994 -72.2422 200.465
lowerback 7.9839 2.60935 1.66321
upperback 2.95403 3.44422 -1.87168
thorax -1.19765 1.68988 -3.16303
lowerneck -9.67016 -2.96701 -5.3463
upperneck 2.53157 -3.84902 8.69066
head 2.60053 -1.69883 3.29865
rclavicle -4.21423e-014 -1.43125e-014
rhumerus -22.4457 33.3244 -89.7503
rradius 49.0741
rwrist -20.173
rhand -20.9545 9.28418
rfingers 7.12502
rthumb 5.41825 -20.6265
lclavicle -4.21423e-014 -1.43125e-014
lhumerus -49.7605 -29.3924 87.2632
lradius 61.4975
lwrist 19.1506
lhand -22.7777 23.9908
lfingers 7.12502
lthumb 3.6578 53.9391
rfemur -18.214 -5.6954 31.0862
rtibia 49.5307
rfoot -30.6481 -11.5871
rtoes 18.9254
lfemur -31.8785 6.35049 -10.3394
ltibia 72.4002
lfoot -7.95335 -4.48231
ltoes -26.0284
275
root -13.1216 16.0688 -7.81134 -204.67 -72.6291 203.159
lowerback 8.04783 2.83218 1.85201
upperback 2.94363 3.75357 -1.92437
thorax -1.20672 1.8453 -3.35235
lowerneck -9.59718 -3.3741 -5.45977
upperneck 2.49133 -4.4197 9.21761
head 2.63433 -1.97094 3.44577
rclavicle -4.55217e-014 -6.36111e-015
rhumerus -20.97 34.3113 -88.768
rradius 50.3384
rwrist -20.4034
rhand -20.8902 9.24662
rfingers 7.12502
rthumb 5.48039 -20.6625
lclavicle -4.55217e-014 -6.36111e-015
lhumerus -51.7156 -29.7298 86.6814
lradius 61.1373
lwrist 19.4133
lhand -21.9148 24.3572
lfingers 7.12502
lthumb 4.49099 54.2896
rfemur -16.7767 -5.95805 31.8759
rtibia 48.9804
rfoot -31.2081 -11.6727
rtoes 18.9637
lfemur -34.0879 5.99532 -10.6058
ltibia 70.605
lfoot -8.98779 -3.70779
ltoes -26.9795
276
root -13.371 16.0794 -7.94001 -207.417 -72.9813 205.89
lowerback 8.10409 3.05158 1.96795
upperback 2.93724 4.05214 -1.98766
thorax -1.20994 1.99489 -3.51045
lowerneck -9.51121 -3.77176 -5.5484
upperneck 2.46391 -4.98617 9.77725
head 2.67384 -2.24047 3.59838
rclavicle -1.13307e-014 2.22639e-014
rhumerus -19.4988 35.1398 -87.6434
rradius 51.5655
rwrist -20.623
rhand -20.7896 9.23684
rfingers 7.12502
rthumb 5.57746 -20.6698
lclavicle -1.13307e-014 2.22639e-014
lhumerus -53.8034 -30.2747 86.1555
lradius 61.1852
lwrist 19.8048
lhand -21.0628 24.6963
lfingers 7.12502
lthumb 5.31369 54.6097
rfemur -15.2627 -6.19902 32.6527
rtibia 48.344
rfoot -31.6042 -11.7552
rtoes 18.7627
lfemur -35.9414 5.75529 -10.9459
ltibia 68.3226
lfoot -9.7557 -2.73076
ltoes -27.6727
277
root -13.6237 16.0956 -8.0712 -210.17 -73.2856 208.599
lowerback 8.14227 3.26932 1.99809
upperback 2.93659 4.341 -2.05923
thorax -1.20199 2.13924 -3.62699
lowerneck -9.41588 -4.15497 -5.62268
upperneck 2.44881 -5.54171 10.3828
head 2.71978 -2.50381 3.76261
rclavicle -2.84262e-014 7.95139e-014
rhumerus -18.0273 35.8004 -86.3987
rradius 52.7213
rwrist -20.8189
rhand -20.6502 9.25591
rfingers 7.12502
rthumb 5.71212 -20.6471
lclavicle -2.84262e-014 7.95139e-014
lhumerus -55.978 -30.9325 85.6871
lradius 61.5486
lwrist 20.2176
lhand -20.33 24.9736
lfingers 7.12502
lthumb 6.02125 54.868
rfemur -13.7338 -6.44729 33.3944
rtibia 47.7113
rfoot -31.7889 -11.786
rtoes 18.2207
lfemur -37.4441 5.67573 -11.3751
ltibia 65.6215
lfoot -10.2114 -1.67065
ltoes -28.075
278
root -13.8788 16.1134 -8.20364 -212.877 -73.5334 211.233
lowerback 8.15439 3.48346 1.93131
upperback 2.94569 4.61655 -2.13333
thorax -1.17717 2.27655 -3.6887
lowerneck -9.31669 -4.51722 -5.6903
upperneck 2.44537 -6.07721 11.0375
head 2.7726 -2.7564 3.94119
rclavicle -1.90833e-014 1.43125e-014
rhumerus -16.5452 36.2929 -85.0592
rradius 53.7712
rwrist -20.9693
rhand -20.4725 9.306
rfingers 7.12502
rthumb 5.88362 -20.5923
lclavicle -1.90833e-014 1.43125e-014
lhumerus -58.1834 -31.5873 85.2536
lradius 62.1436
lwrist 20.5959
lhand -19.7776 25.1689
lfingers 7.12502
lthumb 6.55454 55.0475
rfemur -12.2616 -6.7309 34.0793
rtibia 47.2041
rfoot -31.7256 -11.7041
rtoes 17.2763
lfemur -38.6153 5.79493 -11.904
ltibia 62.5981
lfoot -10.3074 -0.663358
ltoes -28.1436
279
root -14.1358 16.1299 -8.33642 -215.5 -73.7145 213.757
lowerback 8.13482 3.68995 1.76131
upperback 2.96899 4.87321 -2.19971
thorax -1.13108 2.40397 -3.68031
lowerneck -9.21917 -4.85015 -5.75689
upperneck 2.45355 -6.58052 11.7335
head 2.83219 -2.99234 4.13347
rclavicle -4.85035e-014 4.45278e-014
rhumerus -15.0405 36.6243 -83.6532
rradius 54.6823
rwrist -21.0569
rhand -20.263 9.38731
rfingers 7.12502
rthumb 6.08587 -20.5053
lclavicle -4.85035e-014 4.45278e-014
lhumerus -60.3579 -32.116 84.8149
lradius 62.8957
lwrist 20.9364
lhand -19.4147 25.2808
lfingers 7.12502
lthumb 6.9048 55.1482
rfemur -10.9156 -7.06786 34.6924
rtibia 46.9527
rfoot -31.3821 -11.4471
rtoes 15.9257
lfemur -39.4778 6.14369 -12.5324
ltibia 59.3668
lfoot -10.0029 0.178974
ltoes -27.8445
